<svg id="visual" viewBox="0 0 900 600" width="900" height="600" xmlns="http://www.w3.org/2000/svg" xmlns:xlink="http://www.w3.org/1999/xlink" version="1.1"><rect x="0" y="0" width="900" height="600" fill="#001220"></rect><defs><linearGradient id="grad1_0" x1="33.3%" y1="0%" x2="100%" y2="100%"><stop offset="20%" stop-color="#6600ff" stop-opacity="1"></stop><stop offset="80%" stop-color="#6600ff" stop-opacity="1"></stop></linearGradient></defs><defs><linearGradient id="grad1_1" x1="33.3%" y1="0%" x2="100%" y2="100%"><stop offset="20%" stop-color="#6600ff" stop-opacity="1"></stop><stop offset="80%" stop-color="#0035c1" stop-opacity="1"></stop></linearGradient></defs><defs><linearGradient id="grad1_2" x1="33.3%" y1="0%" x2="100%" y2="100%"><stop offset="20%" stop-color="#002a70" stop-opacity="1"></stop><stop offset="80%" stop-color="#0035c1" stop-opacity="1"></stop></linearGradient></defs><defs><linearGradient id="grad1_3" x1="33.3%" y1="0%" x2="100%" y2="100%"><stop offset="20%" stop-color="#002a70" stop-opacity="1"></stop><stop offset="80%" stop-color="#001220" stop-opacity="1"></stop></linearGradient></defs><defs><linearGradient id="grad2_0" x1="0%" y1="0%" x2="66.7%" y2="100%"><stop offset="20%" stop-color="#6600ff" stop-opacity="1"></stop><stop offset="80%" stop-color="#6600ff" stop-opacity="1"></stop></linearGradient></defs><defs><linearGradient id="grad2_1" x1="0%" y1="0%" x2="66.7%" y2="100%"><stop offset="20%" stop-color="#0035c1" stop-opacity="1"></stop><stop offset="80%" stop-color="#6600ff" stop-opacity="1"></stop></linearGradient></defs><defs><linearGradient id="grad2_2" x1="0%" y1="0%" x2="66.7%" y2="100%"><stop offset="20%" stop-color="#0035c1" stop-opacity="1"></stop><stop offset="80%" stop-color="#002a70" stop-opacity="1"></stop></linearGradient></defs><defs><linearGradient id="grad2_3" x1="0%" y1="0%" x2="66.7%" y2="100%"><stop offset="20%" stop-color="#001220" stop-opacity="1"></stop><stop offset="80%" stop-color="#002a70" stop-opacity="1"></stop></linearGradient></defs><g transform="translate(900, 0)"><path d="M0 216.3C-8.4 210.7 -16.7 205.2 -24.2 199.5C-31.7 193.9 -38.4 188.3 -45.7 185.4C-53 182.6 -61 182.7 -69.5 183.3C-78 183.9 -87.1 185.1 -97.6 185.9C-108.1 186.8 -120.1 187.3 -121.6 176.1C-123.1 164.9 -114.1 142 -121.4 137C-128.7 131.9 -152.3 144.8 -161.9 143.5C-171.6 142.1 -167.4 126.5 -168.7 116.5C-170.1 106.4 -177 101.8 -180.6 94.8C-184.2 87.9 -184.4 78.6 -185.1 70.2C-185.8 61.9 -187 54.5 -192.2 47.4C-197.5 40.3 -206.8 33.5 -211.4 25.7C-216.1 17.8 -216.2 8.9 -216.3 0L0 0Z" fill="#001f47"></path><path d="M0 162.2C-6.3 158.1 -12.5 153.9 -18.2 149.7C-23.8 145.4 -28.8 141.2 -34.3 139.1C-39.8 137 -45.7 137 -52.1 137.4C-58.5 137.9 -65.3 138.8 -73.2 139.5C-81.1 140.1 -90.1 140.5 -91.2 132.1C-92.3 123.7 -85.5 106.5 -91 102.7C-96.5 99 -114.2 108.6 -121.4 107.6C-128.7 106.6 -125.5 94.9 -126.5 87.3C-127.6 79.8 -132.8 76.3 -135.5 71.1C-138.2 65.9 -138.3 58.9 -138.8 52.7C-139.4 46.4 -140.3 40.9 -144.2 35.5C-148.1 30.2 -155.1 25.1 -158.6 19.3C-162.1 13.4 -162.2 6.7 -162.2 0L0 0Z" fill="#003299"></path><path d="M0 108.2C-4.2 105.4 -8.4 102.6 -12.1 99.8C-15.9 97 -19.2 94.1 -22.9 92.7C-26.5 91.3 -30.5 91.3 -34.8 91.6C-39 91.9 -43.5 92.5 -48.8 93C-54.1 93.4 -60 93.7 -60.8 88.1C-61.5 82.5 -57 71 -60.7 68.5C-64.3 66 -76.1 72.4 -81 71.7C-85.8 71.1 -83.7 63.3 -84.4 58.2C-85 53.2 -88.5 50.9 -90.3 47.4C-92.1 43.9 -92.2 39.3 -92.6 35.1C-92.9 30.9 -93.5 27.2 -96.1 23.7C-98.7 20.1 -103.4 16.8 -105.7 12.8C-108.1 8.9 -108.1 4.5 -108.2 0L0 0Z" fill="#002fe3"></path><path d="M0 54.1C-2.1 52.7 -4.2 51.3 -6.1 49.9C-7.9 48.5 -9.6 47.1 -11.4 46.4C-13.3 45.7 -15.2 45.7 -17.4 45.8C-19.5 46 -21.8 46.3 -24.4 46.5C-27 46.7 -30 46.8 -30.4 44C-30.8 41.2 -28.5 35.5 -30.3 34.2C-32.2 33 -38.1 36.2 -40.5 35.9C-42.9 35.5 -41.8 31.6 -42.2 29.1C-42.5 26.6 -44.3 25.4 -45.2 23.7C-46.1 22 -46.1 19.6 -46.3 17.6C-46.5 15.5 -46.8 13.6 -48.1 11.8C-49.4 10.1 -51.7 8.4 -52.9 6.4C-54 4.5 -54.1 2.2 -54.1 0L0 0Z" fill="#6600ff"></path></g><g transform="translate(0, 600)"><path d="M0 -216.3C8.3 -211.5 16.6 -206.8 24.8 -204.5C33 -202.2 41.2 -202.5 50 -202.9C58.9 -203.3 68.5 -203.9 74.8 -197.3C81.1 -190.7 84.2 -176.9 87.8 -167.4C91.5 -157.8 95.8 -152.4 104.5 -151.4C113.3 -150.5 126.5 -153.9 132 -149C137.4 -144 135.1 -130.6 140 -124C144.9 -117.4 157 -117.7 163.8 -113C170.5 -108.4 171.8 -98.7 170.9 -89.7C170 -80.6 166.9 -72.2 175.8 -66.7C184.7 -61.2 205.7 -58.6 210 -51.8C214.4 -44.9 202.2 -33.7 200.5 -24.3C198.8 -15 207.6 -7.5 216.3 0L0 0Z" fill="#001f47"></path><path d="M0 -162.2C6.2 -158.7 12.5 -155.1 18.6 -153.4C24.8 -151.7 30.9 -151.9 37.5 -152.2C44.2 -152.5 51.4 -152.9 56.1 -148C60.9 -143 63.1 -132.7 65.9 -125.5C68.6 -118.3 71.8 -114.3 78.4 -113.6C85 -112.8 94.9 -115.4 99 -111.7C103.1 -108 101.3 -97.9 105 -93C108.7 -88.1 117.8 -88.3 122.8 -84.8C127.9 -81.3 128.9 -74.1 128.2 -67.3C127.5 -60.5 125.1 -54.1 131.8 -50C138.5 -45.9 154.2 -44 157.5 -38.8C160.8 -33.7 151.7 -25.3 150.4 -18.3C149.1 -11.2 155.7 -5.6 162.2 0L0 0Z" fill="#003299"></path><path d="M0 -108.2C4.2 -105.8 8.3 -103.4 12.4 -102.2C16.5 -101.1 20.6 -101.3 25 -101.5C29.4 -101.7 34.2 -101.9 37.4 -98.6C40.6 -95.3 42.1 -88.5 43.9 -83.7C45.7 -78.9 47.9 -76.2 52.3 -75.7C56.6 -75.2 63.3 -77 66 -74.5C68.7 -72 67.5 -65.3 70 -62C72.4 -58.7 78.5 -58.9 81.9 -56.5C85.3 -54.2 85.9 -49.4 85.4 -44.8C85 -40.3 83.4 -36.1 87.9 -33.3C92.4 -30.6 102.8 -29.3 105 -25.9C107.2 -22.5 101.1 -16.9 100.3 -12.2C99.4 -7.5 103.8 -3.7 108.2 0L0 0Z" fill="#002fe3"></path><path d="M0 -54.1C2.1 -52.9 4.2 -51.7 6.2 -51.1C8.3 -50.6 10.3 -50.6 12.5 -50.7C14.7 -50.8 17.1 -51 18.7 -49.3C20.3 -47.7 21 -44.2 22 -41.8C22.9 -39.4 23.9 -38.1 26.1 -37.9C28.3 -37.6 31.6 -38.5 33 -37.2C34.4 -36 33.8 -32.6 35 -31C36.2 -29.4 39.3 -29.4 40.9 -28.3C42.6 -27.1 43 -24.7 42.7 -22.4C42.5 -20.2 41.7 -18 43.9 -16.7C46.2 -15.3 51.4 -14.7 52.5 -12.9C53.6 -11.2 50.6 -8.4 50.1 -6.1C49.7 -3.7 51.9 -1.9 54.1 0L0 0Z" fill="#6600ff"></path></g></svg>